<svg id="Layer_1" data-name="Layer 1" xmlns="http://www.w3.org/2000/svg" viewBox="0 0 1001.06 204.19"><defs><style>.cls-1{fill:#1c75bc;}.cls-2{fill:#16a6b1;}</style></defs><title>Logo</title><polygon class="cls-1" points="116.36 0 132.69 31.22 109.46 33.4 116.36 0"/><polygon class="cls-1" points="160.5 78.26 126.43 69.26 140.49 50.64 160.5 78.26"/><polygon class="cls-2" points="45.21 41.02 162.82 23.96 93.49 110.72 105.08 64.98 99.3 98.01 150.12 31.58 45.21 41.02"/><path class="cls-1" d="M348.7,452.55S180.46,605.63,301.33,600.82C301.33,600.82,157.59,626,348.7,452.55Z" transform="translate(-249.47 -397.9)"/><path class="cls-2" d="M350.16,580.64a2.09,2.09,0,0,1,.18.86,2.42,2.42,0,0,1-.18.9,2,2,0,0,1-1.22,1.17,2.09,2.09,0,0,1-.86.18,2.35,2.35,0,0,1-1.26-.36,2.09,2.09,0,0,1-.81-1l-8.56-21.28H307.57L299,582.35a2,2,0,0,1-1.17,1.22,2.09,2.09,0,0,1-.86.18,2.42,2.42,0,0,1-.9-.18,2,2,0,0,1-1.22-1.17,2.42,2.42,0,0,1-.18-.9,2.09,2.09,0,0,1,.18-.86L320.41,517a2.12,2.12,0,0,1,.86-1,2,2,0,0,1,1.22-.41,2,2,0,0,1,1.26.41,2.13,2.13,0,0,1,.86,1Zm-14.51-24-13.16-32.68-13.12,32.68Z" transform="translate(-249.47 -397.9)"/><path class="cls-2" d="M361.93,516.52a2.72,2.72,0,1,1-1.92-.79A2.61,2.61,0,0,1,361.93,516.52ZM360,534a2.07,2.07,0,0,1,1.58.68,2.16,2.16,0,0,1,.68,1.58v45.26a2.16,2.16,0,0,1-.68,1.58,2.18,2.18,0,0,1-3.16,0,2.17,2.17,0,0,1-.68-1.58V536.24a2.16,2.16,0,0,1,.68-1.58A2.07,2.07,0,0,1,360,534Z" transform="translate(-249.47 -397.9)"/><path class="cls-2" d="M433.64,534q8.83,0,15.15,7.3a25.81,25.81,0,0,1,6.31,17.53v22.72a2.16,2.16,0,0,1-2.21,2.21,2.29,2.29,0,0,1-1.62-.63,2.24,2.24,0,0,1-.63-1.58V558.82a21.43,21.43,0,0,0-5-14.33q-5-6-12-6t-12.08,6a21.43,21.43,0,0,0-5,14.33v22.72a2.23,2.23,0,0,1-3.79,1.58,2.16,2.16,0,0,1-.68-1.58V558.82a21.43,21.43,0,0,0-5-14.33q-5-6-12-6t-12,6a21.43,21.43,0,0,0-5,14.33V581.4a2.16,2.16,0,0,1-.68,1.58,2.18,2.18,0,0,1-3.16,0,2.16,2.16,0,0,1-.68-1.58V536.24a2.16,2.16,0,0,1,.68-1.58,2.18,2.18,0,0,1,3.16,0,2.16,2.16,0,0,1,.68,1.58v7.44q6.49-9.69,17-9.69a18.87,18.87,0,0,1,11.49,3.88,23.47,23.47,0,0,1,7.8,9.92,23.59,23.59,0,0,1,7.75-9.92A19.06,19.06,0,0,1,433.64,534Z" transform="translate(-249.47 -397.9)"/><path class="cls-2" d="M510.38,515.64a2.16,2.16,0,0,1,1.58.68,2.07,2.07,0,0,1,.68,1.58v63.6a2.23,2.23,0,0,1-2.25,2.25,2.14,2.14,0,0,1-1.58-.63,2.22,2.22,0,0,1-.68-1.62V551.83h-39v29.66a2.22,2.22,0,0,1-.68,1.62,2.29,2.29,0,0,1-3.16,0,2.21,2.21,0,0,1-.68-1.62v-63.6a2.25,2.25,0,0,1,4.51,0v29.48h39V517.89a2.31,2.31,0,0,1,2.25-2.25Z" transform="translate(-249.47 -397.9)"/><path class="cls-2" d="M529,516.52a2.72,2.72,0,1,1-1.91-.79A2.61,2.61,0,0,1,529,516.52ZM527.09,534a2.07,2.07,0,0,1,1.58.68,2.16,2.16,0,0,1,.68,1.58v45.26a2.16,2.16,0,0,1-.68,1.58,2.18,2.18,0,0,1-3.16,0,2.16,2.16,0,0,1-.68-1.58V536.24a2.16,2.16,0,0,1,.68-1.58A2.07,2.07,0,0,1,527.09,534Z" transform="translate(-249.47 -397.9)"/><path class="cls-2" d="M585,534a2.31,2.31,0,0,1,2.25,2.25v41.2a25.07,25.07,0,0,1-2,9.6,24.54,24.54,0,0,1-13,13.12,23.73,23.73,0,0,1-9.47,1.94,33.15,33.15,0,0,1-19.74-6.18,2.08,2.08,0,0,1-.9-1.44,2.28,2.28,0,0,1,1.85-2.61,2.16,2.16,0,0,1,1.67.41,28.82,28.82,0,0,0,17.13,5.32,19.09,19.09,0,0,0,14.11-6,20,20,0,0,0,5.82-14.42v-6.36a24,24,0,0,1-8.52,7.17,25.4,25.4,0,0,1-20.92.86,24,24,0,0,1-7.75-5,23.2,23.2,0,0,1-5.23-7.44,22.25,22.25,0,0,1,0-18.17,23.2,23.2,0,0,1,5.23-7.44,24,24,0,0,1,7.75-5,25.4,25.4,0,0,1,20.92.86,24,24,0,0,1,8.52,7.17v-7.62a2.07,2.07,0,0,1,.68-1.58l.63-.68Zm-22.18,42.24a19.88,19.88,0,0,0,14.11-5.5A18.21,18.21,0,0,0,577,544a20.67,20.67,0,0,0-28.17,0,18.12,18.12,0,0,0,0,26.69A19.72,19.72,0,0,0,562.85,576.22Z" transform="translate(-249.47 -397.9)"/><path class="cls-2" d="M619.8,533.94a20.79,20.79,0,0,1,16,7.3,25.15,25.15,0,0,1,6.67,17.58v22.72a2.16,2.16,0,0,1-.68,1.58,2.29,2.29,0,0,1-3.16,0,2.16,2.16,0,0,1-.68-1.58V558.82a20.82,20.82,0,0,0-5.32-14.38,16.72,16.72,0,0,0-25.65,0,20.82,20.82,0,0,0-5.32,14.38V581.4A2.16,2.16,0,0,1,601,583a2.18,2.18,0,0,1-3.16,0,2.16,2.16,0,0,1-.68-1.58V517.89a2.25,2.25,0,0,1,4.51,0V544Q608.45,533.94,619.8,533.94Z" transform="translate(-249.47 -397.9)"/><path class="cls-2" d="M664,581.81a25.2,25.2,0,0,1-7.93-5.32,24.62,24.62,0,0,1-5.36-27.23,24.72,24.72,0,0,1,5.36-8A25.22,25.22,0,0,1,664,536a25,25,0,0,1,19.52,0,25.23,25.23,0,0,1,7.93,5.32,24.72,24.72,0,0,1,5.36,8,24.42,24.42,0,0,1,2,9.69,2.31,2.31,0,0,1-2.25,2.25H653.41a19.56,19.56,0,0,0,6.67,12.8,19.93,19.93,0,0,0,13.7,5.23q12.35,0,18.48-8.52a2.31,2.31,0,0,1,1.44-.9,1.52,1.52,0,0,1,.36,0,2.23,2.23,0,0,1,1.31.45,2.11,2.11,0,0,1,.9,1.49,2.36,2.36,0,0,1,0,.45,2.11,2.11,0,0,1-.41,1.22,23.75,23.75,0,0,1-9.29,7.71,29.75,29.75,0,0,1-12.85,2.66A25.24,25.24,0,0,1,664,581.81ZM694.2,556.7a19.55,19.55,0,0,0-6.67-12.94,20.5,20.5,0,0,0-27.45,0,19.54,19.54,0,0,0-6.67,12.94Z" transform="translate(-249.47 -397.9)"/><path class="cls-2" d="M729.2,534a2.31,2.31,0,0,1,2.25,2.25,2.21,2.21,0,0,1-.68,1.62,2.24,2.24,0,0,1-1.58.63,16.57,16.57,0,0,0-12.85,6A20.82,20.82,0,0,0,711,558.87v22.63a2.17,2.17,0,0,1-.68,1.58,2.18,2.18,0,0,1-3.16,0,2.17,2.17,0,0,1-.68-1.58V536.24a2.16,2.16,0,0,1,.68-1.58,2.18,2.18,0,0,1,3.16,0,2.16,2.16,0,0,1,.68,1.58V544Q717.84,534,729.2,534Z" transform="translate(-249.47 -397.9)"/><path class="cls-1" d="M827.07,516.72a2.22,2.22,0,0,1,.31,1.13,2.12,2.12,0,0,1-.09.59L811.52,582a2.32,2.32,0,0,1-.81,1.22,2.22,2.22,0,0,1-2.79,0,2.08,2.08,0,0,1-.77-1.22l-13.25-54.59L780.68,582a2,2,0,0,1-.81,1.22,2.22,2.22,0,0,1-2.79,0,2.08,2.08,0,0,1-.77-1.22l-15.82-63.6a1.69,1.69,0,0,1-.09-.54,2.31,2.31,0,0,1,1.71-2.16,2.13,2.13,0,0,1,.59-.09,2.25,2.25,0,0,1,2.16,1.71l13.57,54.72,13.3-54.72a2.18,2.18,0,0,1,2.16-1.71,2.08,2.08,0,0,1,2.21,1.71l13.25,54.72,13.57-54.72a2.24,2.24,0,0,1,2.16-1.71,2.11,2.11,0,0,1,.59.09A2.26,2.26,0,0,1,827.07,516.72Z" transform="translate(-249.47 -397.9)"/><path class="cls-1" d="M846.43,581.81a25.22,25.22,0,0,1-7.93-5.32,24.32,24.32,0,0,1-5.36-7.89,24.07,24.07,0,0,1-2-9.65,24.39,24.39,0,0,1,2-9.69,24.7,24.7,0,0,1,5.36-8,25.24,25.24,0,0,1,7.93-5.32,25,25,0,0,1,19.52,0,25.22,25.22,0,0,1,7.93,5.32,24.74,24.74,0,0,1,5.37,8,24.42,24.42,0,0,1,2,9.69,2.31,2.31,0,0,1-2.25,2.25H835.79a19.55,19.55,0,0,0,6.67,12.8,19.93,19.93,0,0,0,13.7,5.23q12.35,0,18.48-8.52a2.3,2.3,0,0,1,1.44-.9,1.51,1.51,0,0,1,.36,0,2.22,2.22,0,0,1,1.31.45,2.12,2.12,0,0,1,.9,1.49,2.36,2.36,0,0,1,0,.45,2.12,2.12,0,0,1-.41,1.22,23.76,23.76,0,0,1-9.29,7.71,29.75,29.75,0,0,1-12.85,2.66A25.25,25.25,0,0,1,846.43,581.81Zm30.16-25.11a19.55,19.55,0,0,0-6.67-12.94,20.5,20.5,0,0,0-27.45,0,19.55,19.55,0,0,0-6.67,12.94Z" transform="translate(-249.47 -397.9)"/><path class="cls-1" d="M913.34,534a23.32,23.32,0,0,1,17.26,7.3,25.26,25.26,0,0,1,0,35.16,23.32,23.32,0,0,1-17.26,7.3q-12.62,0-19.92-10.5v8.25a2.16,2.16,0,0,1-.68,1.58,2.18,2.18,0,0,1-3.15,0,2.16,2.16,0,0,1-.68-1.58v-63.6a2.25,2.25,0,0,1,4.51,0v26.64Q900.72,534,913.34,534Zm0,45.26a19,19,0,0,0,14.06-6,20.57,20.57,0,0,0,0-28.76,19.55,19.55,0,0,0-28.17,0,20.69,20.69,0,0,0,0,28.76A19,19,0,0,0,913.34,579.24Z" transform="translate(-249.47 -397.9)"/><path class="cls-1" d="M1000.11,515.64a34.05,34.05,0,0,1,0,68.11H984.2a2.07,2.07,0,0,1-1.58-.68,2.17,2.17,0,0,1-.68-1.58v-63.6a2.31,2.31,0,0,1,2.25-2.25Zm0,63.6a29.55,29.55,0,0,0,0-59.09H986.46v59.09Z" transform="translate(-249.47 -397.9)"/><path class="cls-1" d="M1054.63,581.81a25.22,25.22,0,0,1-7.93-5.32,24.32,24.32,0,0,1-5.36-7.89,24.08,24.08,0,0,1-2-9.65,24.39,24.39,0,0,1,2-9.69,24.7,24.7,0,0,1,5.36-8,25.24,25.24,0,0,1,7.93-5.32,25,25,0,0,1,19.52,0,25.22,25.22,0,0,1,7.93,5.32,24.74,24.74,0,0,1,5.37,8,24.42,24.42,0,0,1,2,9.69,2.31,2.31,0,0,1-2.25,2.25H1044a19.55,19.55,0,0,0,6.67,12.8,19.93,19.93,0,0,0,13.7,5.23q12.35,0,18.48-8.52a2.3,2.3,0,0,1,1.44-.9,1.51,1.51,0,0,1,.36,0,2.23,2.23,0,0,1,1.31.45,2.12,2.12,0,0,1,.9,1.49,2.36,2.36,0,0,1,0,.45,2.12,2.12,0,0,1-.41,1.22,23.75,23.75,0,0,1-9.29,7.71,29.75,29.75,0,0,1-12.85,2.66A25.25,25.25,0,0,1,1054.63,581.81Zm30.16-25.11a19.55,19.55,0,0,0-6.67-12.94,20.5,20.5,0,0,0-27.45,0A19.55,19.55,0,0,0,1044,556.7Z" transform="translate(-249.47 -397.9)"/><path class="cls-1" d="M1101,581a19.25,19.25,0,0,1-6.08-6.17,2.31,2.31,0,0,1-.32-1.71,2.22,2.22,0,0,1,1-1.4,2,2,0,0,1,1.67-.27,2.11,2.11,0,0,1,1.4,1,15.32,15.32,0,0,0,4.6,4.73,11.91,11.91,0,0,0,6.58,2.12,10.32,10.32,0,0,0,7.12-2.66,8.34,8.34,0,0,0,2.93-6.4,7.16,7.16,0,0,0-2.84-6.18q-2-1.44-7.84-3.07-6.58-1.8-9.29-3.74-4.64-3.34-4.64-9.65a12.7,12.7,0,0,1,4.28-9.6,14.59,14.59,0,0,1,10.28-4,15,15,0,0,1,8,2.25,13.33,13.33,0,0,1,5.37,5.95,2.12,2.12,0,0,1,0,1.76,2.2,2.2,0,0,1-1.17,1.26,2.25,2.25,0,0,1-1.71,0,2.2,2.2,0,0,1-1.26-1.17,9.25,9.25,0,0,0-3.7-4.06,10.57,10.57,0,0,0-5.59-1.53,10.16,10.16,0,0,0-7.08,2.66,8.29,8.29,0,0,0-3,6.4,6.91,6.91,0,0,0,2.79,6q1.94,1.4,7.8,3,6.63,1.85,9.38,3.79,4.64,3.38,4.64,9.78a12.7,12.7,0,0,1-4.28,9.6,14.49,14.49,0,0,1-10.28,4A16.18,16.18,0,0,1,1101,581Z" transform="translate(-249.47 -397.9)"/><path class="cls-1" d="M1137.14,516.52a2.72,2.72,0,1,1-1.92-.79A2.61,2.61,0,0,1,1137.14,516.52ZM1135.23,534a2.06,2.06,0,0,1,1.58.68,2.16,2.16,0,0,1,.68,1.58v45.26a2.16,2.16,0,0,1-.68,1.58,2.18,2.18,0,0,1-3.15,0,2.16,2.16,0,0,1-.68-1.58V536.24a2.16,2.16,0,0,1,.68-1.58A2.06,2.06,0,0,1,1135.23,534Z" transform="translate(-249.47 -397.9)"/><path class="cls-1" d="M1193.17,534a2.31,2.31,0,0,1,2.25,2.25v41.2a25.07,25.07,0,0,1-2,9.6,24.55,24.55,0,0,1-13,13.12,23.72,23.72,0,0,1-9.47,1.94,33.14,33.14,0,0,1-19.74-6.18,2.08,2.08,0,0,1-.9-1.44,2.28,2.28,0,0,1,1.85-2.61,2.16,2.16,0,0,1,1.67.41,28.82,28.82,0,0,0,17.13,5.32,19.09,19.09,0,0,0,14.11-6,20,20,0,0,0,5.81-14.42v-6.36a24,24,0,0,1-8.52,7.17,25.4,25.4,0,0,1-20.92.86,24,24,0,0,1-7.75-5,23.18,23.18,0,0,1-5.23-7.44,22.24,22.24,0,0,1,0-18.17,23.18,23.18,0,0,1,5.23-7.44,24,24,0,0,1,7.75-5,25.4,25.4,0,0,1,20.92.86,24,24,0,0,1,8.52,7.17v-7.62a2.08,2.08,0,0,1,.68-1.58l.63-.68ZM1171,576.22a19.88,19.88,0,0,0,14.11-5.5,18.22,18.22,0,0,0,0-26.69,20.67,20.67,0,0,0-28.17,0,18.12,18.12,0,0,0,0,26.69A19.73,19.73,0,0,0,1171,576.22Z" transform="translate(-249.47 -397.9)"/><path class="cls-1" d="M1227.9,534a20.7,20.7,0,0,1,16,7.3,25,25,0,0,1,6.67,17.53v22.72a2.16,2.16,0,0,1-.68,1.58,2.29,2.29,0,0,1-3.16,0,2.17,2.17,0,0,1-.68-1.58V558.82a20.67,20.67,0,0,0-5.32-14.33,16.67,16.67,0,0,0-25.6,0,20.66,20.66,0,0,0-5.32,14.33v22.67a2.16,2.16,0,0,1-.68,1.58,2.18,2.18,0,0,1-3.15,0,2.16,2.16,0,0,1-.68-1.58V536.24a2.16,2.16,0,0,1,.68-1.58,2.18,2.18,0,0,1,3.15,0,2.16,2.16,0,0,1,.68,1.58V544Q1216.59,534,1227.9,534Z" transform="translate(-249.47 -397.9)"/></svg>