<svg xmlns="http://www.w3.org/2000/svg" viewBox="0 0 32 32" width="32" height="32"><title>show</title><g class="nc-icon-wrapper" stroke-linecap="square" stroke-linejoin="miter" stroke-width="2" fill="#000000" stroke="#000000"><rect x="5" y="2" width="22" height="15" fill="none" stroke="#000000" stroke-miterlimit="10"/><polyline points="6 24 6 22 10 22 10 24" fill="none" stroke-miterlimit="10" data-color="color-2"/><polyline points="22 24 22 22 26 22 26 24" fill="none" stroke-miterlimit="10" data-color="color-2"/><polyline points="14 24 14 22 18 22 18 24" fill="none" stroke-miterlimit="10" data-color="color-2"/><polyline points="10 30 10 28 14 28 14 30" fill="none" stroke-miterlimit="10" data-color="color-2"/><polyline points="6 30 6 28 2 28 2 30" fill="none" stroke-miterlimit="10" data-color="color-2"/><polyline points="26 30 26 28 30 28 30 30" fill="none" stroke-miterlimit="10" data-color="color-2"/><polyline points="18 30 18 28 22 28 22 30" fill="none" stroke-miterlimit="10" data-color="color-2"/></g></svg>