<svg xmlns="http://www.w3.org/2000/svg" viewBox="0 0 32 32" width="32" height="32"><title>info point</title><g class="nc-icon-wrapper" stroke-linecap="square" stroke-linejoin="miter" stroke-width="2" fill="#000000" stroke="#000000"><path d="M16,7h0a3,3,0,0,1-3-3h0a3,3,0,0,1,3-3h0a3,3,0,0,1,3,3h0A3,3,0,0,1,16,7Z" fill="none" stroke="#000000" stroke-miterlimit="10"/><path d="M11,17V13a3,3,0,0,1,3-3h4a3,3,0,0,1,3,3v4" fill="none" stroke="#000000" stroke-miterlimit="10"/><rect x="6" y="17" width="20" height="4" fill="none" stroke-miterlimit="10" data-color="color-2"/><polyline points="23 21 23 31 9 31 9 21" fill="none" stroke-miterlimit="10" data-color="color-2"/></g></svg>