<?xml version="1.0" encoding="UTF-8" standalone="no"?>
<!DOCTYPE svg PUBLIC "-//W3C//DTD SVG 1.1//EN" "http://www.w3.org/Graphics/SVG/1.1/DTD/svg11.dtd">
<svg class="logo" width="100%" height="100%" viewBox="0 0 3008 2052" style="fill-rule:evenodd;clip-rule:evenodd;stroke-linejoin:round;stroke-miterlimit:1.41421;">
    <g transform="matrix(1,0,0,1,5,5)">
        <clipPath id="_clip1">
            <path d="M1084,53L1084,106L978,106L978,319L872,319L872,531L978,531L978,425L1084.5,425.5L1085,531L1191,531L1191,425L1297,425L1297,531L1403,531L1403.5,425.5L1509.5,425.5L1510,531L1616,531L1616,319L1510,319L1510,106L1403,106L1403,0L1297,0L1297,106L1191,106L1191,0L1084,0L1084,53ZM1190.75,265.75L1190.5,318.5L1085,319L1085,213L1191,213L1190.75,265.75ZM1403,266L1403,319L1297.5,318.5L1297,213L1403,213L1403,266Z"/>
        </clipPath>
        <g class="primary" clip-path="url(#_clip1)">
            <rect x="867" y="-5" width="754" height="541"/>
        </g>
        <clipPath id="_clip2">
            <path d="M1616,159.5L1616,213L2040,213L2040,956L1085,956L1084.5,637.5L978.5,637.5L978.5,1062.5L2145.5,1062.5L2146,106L1616,106L1616,159.5Z"/>
        </clipPath>
        <g class="primary" clip-path="url(#_clip2)">
            <rect x="973.5" y="101" width="1177.5" height="966.5" />
        </g>
        <clipPath id="_clip3">
            <path d="M2117,1230.1C2115.65,1230.64 2112.3,1233.23 2109.7,1235.75C2092.31,1252.62 2078.01,1290.2 2077.64,1320C2077.5,1331.5 2077.5,1331.5 2081.01,1337.4C2087.56,1348.4 2104.07,1363.09 2111.5,1364.52L2114.5,1365.1L2117.64,1353.8C2125.52,1325.4 2148.99,1280.51 2165.51,1262.2L2170.3,1256.9L2166.4,1252.9C2160.93,1247.3 2146.6,1237.2 2139.5,1233.96C2133.7,1231.31 2124.79,1228.92 2121.2,1229.04C2120.25,1229.07 2118.4,1229.54 2117,1230.1Z"/>
        </clipPath>
        <g class="neutral" clip-path="url(#_clip3)">
            <rect x="2072.6" y="1224.04" width="102.703" height="146.063" style="fill-rule:nonzero;"/>
        </g>
        <clipPath id="_clip4">
            <path d="M383.5,1263.85C368.862,1268.13 335.4,1281.79 317.3,1290.88C310.8,1294.14 303.703,1297.34 301.5,1298C298.717,1298.84 282.2,1299.32 247.2,1299.59C188.4,1300.04 155.579,1301.23 124.2,1304.06C74.9,1308.52 39.966,1315.17 18.1,1324.27C8.2,1328.39 0,1336.01 0,1341.1C0,1352.27 14.179,1387.3 26.433,1406.4C30.924,1413.4 37.726,1421 39.5,1421C40.163,1421 41.211,1419.3 41.843,1417.2C43.668,1411.13 50.4,1402.65 57.8,1397.1C86.208,1375.79 144.4,1362.52 249.4,1353.39L257.299,1352.7L252.762,1361.1C187.501,1481.9 114.762,1649.12 95.857,1721.8C89.848,1744.9 91.92,1752.89 107.9,1768.27C116.615,1776.66 130.399,1786.57 140.5,1791.72C147.1,1795.08 157.6,1799 160,1799C161.824,1799 161.836,1798.85 160.3,1795.25C159.02,1792.25 158.816,1789.1 159.282,1779.5C160.966,1744.79 182.7,1675.3 224.899,1569.7C247.358,1513.5 286.125,1423.14 310.622,1369.9L320.1,1349.3L334.8,1348.63C379.2,1346.6 414.346,1343.17 424.7,1339.86C427.5,1338.96 428,1338.3 428,1335.5C428,1327.43 417.094,1298.2 407.668,1281C402.078,1270.8 394.497,1261.97 391.4,1262.05C390.355,1262.08 386.8,1262.89 383.5,1263.85Z"/>
        </clipPath>
        <g class="neutral" clip-path="url(#_clip4)">
            <rect x="-5" y="1257.05" width="438" height="546.949" style="fill-rule:nonzero;"/>
        </g>
        <clipPath id="_clip5">
            <path d="M2319.4,1285.7C2314.25,1291.26 2301.87,1315.6 2290.01,1343.5C2280.41,1366.07 2266.7,1402.5 2252,1444.5C2248.53,1454.4 2245.36,1462.88 2244.95,1463.35C2244.53,1463.82 2241,1461.72 2237,1458.62C2226.91,1450.8 2214.6,1443.56 2203.3,1438.79C2186.2,1431.58 2174.34,1432.57 2160.7,1442.33C2129.97,1464.33 2098.2,1524.8 2077.47,1600.8C2074.36,1612.17 2073.09,1615 2065.37,1627.8C2054.93,1645.1 2040.01,1667.83 2029.48,1682.5C2019.35,1696.6 2003.87,1716.17 2003.3,1715.6C2002.69,1714.99 2007.48,1692.3 2013.06,1669.4C2024.49,1622.5 2044.16,1563.44 2063.49,1518C2070.89,1500.6 2082.89,1475.69 2087.63,1467.9L2091.4,1461.7L2085.9,1456.57C2076.21,1447.53 2050.5,1436.23 2035.8,1434.54C2030.3,1433.91 2030.15,1433.96 2027.24,1437.5C2021.38,1444.64 2011.41,1464.9 2000.95,1490.9C1997.77,1498.8 1994.98,1505.42 1994.7,1505.69C1994.2,1506.19 1961.2,1514.99 1959.8,1515C1959.47,1515 1960.04,1512.3 1961.1,1508.9C1962.16,1505.5 1963,1500.45 1963,1497.5C1963,1493 1962.4,1491.3 1958.98,1486.2C1948.58,1470.66 1916.2,1446.43 1892.5,1436.45C1886.43,1433.89 1884.3,1433.51 1876.5,1433.55C1868.6,1433.59 1866.6,1434 1860.1,1436.84C1842.09,1444.73 1823.63,1460.8 1811.11,1479.5C1793.63,1505.6 1788.16,1525.2 1789.25,1557.9L1789.8,1574.3L1784.48,1583.5C1773.33,1602.78 1754.49,1630.4 1732.98,1659C1714.78,1683.2 1692.52,1709.84 1691.4,1708.74C1690.26,1707.63 1710.28,1636 1723.06,1595.5C1740.94,1538.8 1771.46,1450.75 1784.48,1418.3L1786.2,1414L1808,1414C1832,1414 1876.2,1415.45 1902,1417.08C1919.1,1418.17 1935.15,1420.15 1945.5,1422.46C1949.3,1423.31 1951.72,1423.45 1952.1,1422.85C1952.44,1422.32 1952.35,1419.7 1951.9,1416.9C1949.89,1404.4 1944.61,1391.95 1938.37,1385C1931.47,1377.31 1927.5,1376.86 1859.8,1376.13L1802,1375.5L1808.35,1362.8C1811.85,1355.8 1817.41,1346.06 1820.75,1341.1L1826.8,1332.1L1824.11,1329.4C1814.63,1319.88 1785.1,1306.08 1770.5,1304.34C1765.5,1303.75 1764.9,1303.91 1762.43,1306.6C1756.41,1313.13 1744.51,1337.1 1733.13,1365.6L1727.9,1378.7L1707.7,1379.38C1683.77,1380.18 1661.7,1381.36 1631,1383.5C1598,1385.8 1598,1385.8 1598,1388.1C1598,1393.5 1607.5,1403.55 1616.5,1407.66C1627.52,1412.7 1632.7,1413.26 1674.5,1413.9C1699.6,1414.29 1713.43,1414.86 1713.3,1415.5C1713.19,1416.05 1708.44,1429.5 1702.69,1445.5C1689.99,1480.9 1671.39,1537.12 1662.98,1565.5C1656.13,1588.61 1653.19,1594.8 1635.69,1623C1618.06,1651.4 1591.6,1688.59 1580.54,1700.5L1575.9,1705.5L1576.5,1700C1578.15,1684.97 1587.42,1643.3 1595.06,1616.5C1608.47,1569.5 1632.24,1508.57 1648.01,1480.8C1650.73,1476 1653,1471.59 1653,1471.1C1653,1469.58 1646.5,1464.35 1639.3,1460.07C1626.4,1452.42 1601.56,1444 1591.9,1444C1588.8,1444 1587.59,1444.7 1584.48,1448.3C1576.78,1457.2 1561.74,1491.7 1549.75,1528C1544.01,1545.37 1541.25,1551.6 1524.54,1585C1489.37,1655.3 1457.42,1712.25 1446.86,1723.5L1443.1,1727.5L1443.07,1722.1C1442.97,1707.22 1458.98,1647.7 1479.95,1585C1497.37,1532.9 1515.49,1488.93 1528.03,1468.3L1531.8,1462.1L1529.84,1459.6C1525.5,1454.06 1504.7,1442.27 1492,1438.15C1482.2,1434.97 1472.63,1433.56 1470.1,1434.92C1462.16,1439.21 1443.78,1480.6 1425.45,1535.5C1407.45,1589.4 1395.59,1636.3 1388.91,1680C1387.23,1691.01 1386.68,1699.2 1386.61,1714C1386.52,1735.5 1387.81,1742.69 1393.93,1754.8C1402.08,1770.9 1422.7,1785.8 1440.7,1788.58C1456.95,1791.09 1476.48,1761.2 1508.7,1684.5C1512.19,1676.2 1515,1670.62 1515,1672C1515,1673.37 1514.33,1679.9 1513.52,1686.4C1511.5,1702.7 1511.58,1716.73 1513.72,1722.2C1518.38,1734.1 1530.7,1750.28 1543.3,1761.04C1557.2,1772.9 1565.79,1776.13 1573.6,1772.41C1584.16,1767.38 1606.38,1737.8 1625.36,1703.5C1629.01,1696.9 1632,1691.82 1632,1692.2C1632,1692.59 1630.83,1700 1629.4,1708.7C1627.97,1717.4 1627.01,1726.39 1627.27,1728.7C1628.21,1737.13 1638.14,1754 1650.75,1768.6C1657.14,1776 1670.63,1786.8 1675.2,1788.18C1678.48,1789.17 1679.4,1789.01 1683.3,1786.72C1694.3,1780.27 1720.63,1745.8 1742.54,1709.2L1749.3,1697.9L1752.06,1708.7C1757.62,1730.5 1764.68,1747.19 1774.97,1762.9C1785.72,1779.3 1795.95,1787.22 1808.2,1788.61C1815.52,1789.44 1828.4,1787.54 1837.4,1784.29C1860.85,1775.84 1885.26,1752.3 1899.09,1724.8C1906.53,1710 1909.31,1700.98 1909.34,1691.5C1909.39,1676.87 1904.65,1664.7 1884.03,1626.5C1871.02,1602.4 1862.25,1583.76 1859,1573.3C1851.97,1550.7 1858.09,1527.34 1876.85,1505.2C1884.72,1495.9 1898.58,1486.76 1906.8,1485.43C1910.7,1484.8 1910.7,1484.8 1911.32,1488.6C1912.33,1494.7 1911.9,1515.02 1910.66,1520.4C1909.34,1526.14 1908.9,1526.33 1894.2,1527.59L1885.8,1528.3L1884.15,1531.9C1882.81,1534.82 1882.52,1538.8 1882.6,1553C1882.69,1568.5 1882.99,1571.6 1885.26,1580.1C1888.46,1592.1 1891.95,1599.06 1896.5,1602.53C1899.6,1604.89 1900.37,1605.07 1903.25,1604.05C1905.01,1603.43 1908.2,1601.79 1910.2,1600.47C1914.6,1597.59 1926.47,1582 1933.93,1569.3C1938.58,1561.4 1939.93,1559.83 1942.9,1558.87C1947.53,1557.37 1970.9,1546.12 1977.7,1542.12C1980.6,1540.41 1983,1539.38 1983,1539.85C1983,1540.31 1982.06,1543.4 1980.95,1546.6C1976.02,1560.8 1965.42,1597.3 1959.52,1620.4C1948.93,1661.8 1942.49,1697.35 1941.38,1720.5C1940.87,1731.1 1941.04,1733.14 1942.89,1738C1950.77,1758.7 1980.48,1789 1992.9,1789C2004.99,1789 2028.46,1759.8 2053.67,1713.4L2058.5,1704.5L2059.18,1719C2060.34,1743.9 2064.77,1755.71 2077.95,1769C2088.89,1780.05 2100.9,1786.66 2113.4,1788.53C2116.9,1789.05 2118.9,1788.72 2122.4,1787.03C2136.53,1780.21 2155.91,1746.8 2180.55,1686.8C2184.32,1677.6 2187.53,1670.21 2187.7,1670.35C2187.86,1670.49 2187.37,1674.4 2186.61,1679C2181.25,1711.5 2181.21,1712.65 2185.04,1721.6C2193.04,1740.3 2223.52,1772 2233.5,1772C2237.66,1772 2244.38,1767.6 2250.43,1760.9C2260.89,1749.32 2275.56,1728.1 2288.33,1706.1L2295,1694.6L2295,1702.6C2295,1720.7 2302.82,1737.41 2319.46,1754.9C2329.74,1765.7 2340.6,1773.75 2353.3,1779.98C2364.6,1785.53 2371.63,1787.61 2382.4,1788.58C2391.96,1789.44 2398.1,1787.61 2408.5,1780.82C2417.96,1774.65 2441.69,1751.4 2453.94,1736.3C2458.57,1730.6 2462.43,1726.13 2462.6,1726.3C2462.77,1726.47 2462.44,1728.6 2461.86,1731.1C2458.31,1746.47 2466.8,1763.14 2485.3,1777.13C2493.2,1783.1 2500.71,1787.23 2506,1788.5L2508.5,1789.1L2508.55,1775.8C2508.59,1765.2 2509.16,1759.96 2511.36,1750C2519.27,1714.14 2541.16,1647.4 2563.5,1591C2577.53,1555.6 2607.54,1487 2609,1487C2610.72,1487 2625.13,1501.5 2630.17,1508.3C2639.57,1521.01 2639.64,1519.3 2628.44,1549.5C2587.83,1659 2575,1701.4 2575,1726.1C2575,1734.33 2576.48,1737.8 2584.78,1749C2600.55,1770.3 2627.32,1790.37 2637.7,1788.69C2649.73,1786.73 2672.92,1756.8 2697.73,1711.2L2701.7,1703.9L2703.51,1710.7C2712.99,1746.3 2731.89,1777.61 2748.7,1785.54C2762.84,1792.21 2787.3,1787.92 2805.9,1775.5C2831.07,1758.7 2851.82,1730.1 2859.22,1702C2863.8,1684.6 2859.07,1670.3 2832.84,1622.2C2818.66,1596.2 2811.28,1579.36 2808.47,1566.6C2804.41,1548.16 2810.42,1527.2 2825.09,1508.7C2834.29,1497.1 2848.62,1486.88 2857.7,1485.45L2861.8,1484.8L2862.58,1489.2C2863.75,1495.8 2863.31,1514.89 2861.86,1520.4C2860.34,1526.14 2859.9,1526.33 2845.2,1527.59L2836.8,1528.3L2835.25,1531.9C2834.25,1534.23 2833.54,1539.9 2833.23,1548C2832.29,1573.2 2839.52,1598.61 2849,1603.46C2852.05,1605.03 2852.45,1604.98 2857.65,1602.45C2861.34,1600.65 2864.77,1597.8 2868.27,1593.6C2873.53,1587.28 2883.03,1573.3 2887.62,1565.1C2889.91,1561.02 2891,1560.18 2897.3,1557.65C2908.6,1553.13 2929.76,1541.93 2940.6,1534.74C2956,1524.53 2998.89,1489.59 2997.6,1488.3C2997.38,1488.08 2995.4,1488.81 2993.2,1489.92C2986.87,1493.11 2977,1496.59 2959,1501.99C2940,1507.68 2911.77,1515.12 2911.2,1514.58C2910.98,1514.37 2911.76,1510.4 2912.95,1505.7C2914.9,1498 2914.96,1496.81 2913.64,1493C2911.5,1486.82 2907.6,1481.75 2897.8,1472.43C2883.6,1458.91 2861.2,1443.9 2843.9,1436.31C2838.38,1433.88 2836.2,1433.5 2828,1433.5C2818.69,1433.5 2818.3,1433.6 2808.7,1438.21C2797.3,1443.7 2792.84,1446.65 2783.9,1454.62C2770.96,1466.16 2759.97,1480.8 2751.55,1497.7C2742.83,1515.2 2739.39,1533.5 2740.27,1557.6L2740.8,1571.9L2736.8,1579.7C2717.34,1617.6 2671.65,1687.32 2648.46,1714.5L2645.9,1717.5L2646.58,1713C2647.79,1704.92 2656.74,1669.9 2661.9,1653C2670.94,1623.4 2689.54,1570.56 2695.85,1556.6C2699.28,1548.98 2699.5,1547.9 2699.5,1538.4C2699.5,1528.4 2699.45,1528.21 2694.76,1518.9C2687.67,1504.82 2681.7,1497.54 2657.9,1473.93C2639.2,1455.38 2636.1,1451.88 2635.48,1448.6C2633.31,1437.21 2638.97,1424.3 2652.23,1410.4C2657.09,1405.3 2661,1400.98 2661,1400.7C2661,1399.67 2643,1385.07 2635.5,1380.02C2626.4,1373.88 2615.22,1368.41 2610,1367.53C2600.68,1365.96 2591.25,1372.7 2580.95,1388.3C2571.47,1402.66 2565.48,1420.1 2564.38,1436.5C2563.65,1447.5 2564.93,1452.86 2569.48,1457.8L2572.8,1461.4L2568.03,1470.9C2554.36,1498.12 2524.77,1563.3 2510.66,1597.3C2504.14,1613 2504.03,1613.19 2492.2,1627.3C2444.42,1684.3 2386.64,1733.96 2367.6,1734.38C2352.2,1734.72 2350.96,1708.4 2363.98,1657.4C2367.83,1642.3 2375.39,1616.82 2376.58,1614.9C2376.92,1614.34 2379.6,1616.11 2382.6,1618.86C2395.87,1631.05 2410.2,1632.85 2429,1624.67C2451.59,1614.84 2471.34,1593.7 2486.51,1563.1C2496.03,1543.9 2500,1529.13 2500,1512.9C2500,1501.8 2498.46,1496.45 2492.93,1488.4C2481.9,1472.33 2453.2,1448.7 2431.6,1437.9C2420.9,1432.55 2415.23,1432.49 2405,1437.62C2374.46,1452.94 2337.97,1516.2 2314.04,1595.3C2310.32,1607.6 2309.8,1608.6 2297.58,1627C2281.43,1651.3 2248.08,1695.69 2245.8,1695.91C2244.36,1696.04 2258.47,1644.1 2272.11,1599C2281.86,1566.8 2311.79,1476.78 2322.82,1446.5C2346.27,1382.1 2369.22,1330.3 2381.12,1314.9L2383.9,1311.3L2380.7,1308.25C2375.09,1302.9 2356.2,1292.29 2344.7,1288.03C2338.6,1285.77 2327.5,1283.06 2324.2,1283.02C2322.92,1283.01 2320.79,1284.2 2319.4,1285.7ZM2451,1491.4C2451,1514 2441.75,1542.28 2427.91,1562C2416.74,1577.9 2404.39,1588.34 2390.7,1593.46L2383.9,1596L2384.55,1593.75C2384.91,1592.52 2388.4,1583.4 2392.28,1573.6C2407.19,1535.9 2425.97,1502.13 2439.6,1488.5C2443.3,1484.8 2448.81,1481.74 2450.2,1482.6C2450.64,1482.88 2451,1486.8 2451,1491.4ZM2224.9,1491.01C2226.9,1492.06 2229.79,1493.94 2231.4,1495.25L2234.3,1497.6L2231.7,1505.55C2230.26,1509.96 2227.7,1518.4 2225.95,1524.5C2215.99,1559.3 2129.97,1719.03 2117.2,1726.43C2115.88,1727.2 2115.77,1726.3 2116.28,1718.9C2118.08,1693.12 2137.4,1624.4 2155.76,1578.5C2172.36,1537 2186.34,1511.75 2200.92,1496.9C2209.95,1487.7 2215.85,1486.25 2224.9,1491.01ZM2763.8,1638C2766.56,1644.34 2772.25,1656.9 2776.49,1666C2793.6,1702.7 2798.08,1715.47 2796.6,1723.4C2795.5,1729.32 2792.2,1732 2786,1732C2772.48,1732 2753.3,1721.12 2735.5,1703.36C2727.1,1694.98 2715,1680.3 2715,1678.5C2715,1677.9 2717.97,1670.9 2721.59,1663C2730.01,1644.6 2738.89,1622.35 2742.94,1609.5C2744.68,1604 2746.33,1598.83 2746.6,1598C2746.88,1597.17 2749.71,1603.2 2752.95,1611.5C2756.19,1619.8 2761.03,1631.64 2763.8,1638ZM1804.45,1618C1808.72,1628.75 1817.28,1648.5 1823.51,1662C1845.88,1710.5 1848.24,1717.69 1844.62,1726.4C1843.83,1728.3 1842.32,1730.27 1841.2,1730.87C1836.05,1733.63 1823.2,1730.95 1812,1724.78C1797.56,1716.82 1778.78,1699.6 1767.54,1684L1761.7,1675.9L1773.29,1652.2C1783.89,1630.5 1793.78,1607.58 1795.5,1600.7C1795.88,1599.2 1796.32,1598.04 1796.45,1598.2C1796.59,1598.37 1800.2,1607.3 1804.45,1618Z"/>
        </clipPath>
        <g class="neutral" clip-path="url(#_clip5)">
            <rect x="1381.61" y="1278.02" width="1621.02" height="516.076" style="fill-rule:nonzero;"/>
        </g>
        <clipPath id="_clip6">
            <path d="M800.9,1285.03C793.403,1289.4 771.358,1338.2 744.447,1410C720.983,1472.6 706.231,1516.9 689.366,1575.4L681.9,1601.3L675.243,1609.9C630.423,1667.8 565.125,1727.64 539.8,1734.03C533.1,1735.72 529.769,1734.2 526.764,1728.1C524.776,1724.06 524.514,1722.1 524.619,1712C524.98,1677.03 541.599,1618.5 568.491,1557.5C586.433,1516.8 605.712,1486.74 616.2,1483.1C618.8,1482.2 619.198,1482.36 620.048,1484.6C625.915,1500.06 608.017,1563.7 587.536,1600.2C582.373,1609.4 582.877,1610.58 591.9,1610.39C616.5,1609.9 653.19,1575.4 665.281,1541.4C670.295,1527.3 671.057,1508.53 667.047,1497.9C660.673,1481 628.3,1451.75 600.7,1437.95C594.2,1434.7 591.772,1434 587,1434C566.658,1434 539.912,1463.4 515.132,1513C500.574,1542.14 489.371,1571.8 479.854,1606.4L475.7,1621.5L467.774,1631C434.149,1671.3 388.12,1713.83 362.1,1728.64C352.4,1734.17 345.514,1735.82 341.3,1733.63C335.752,1730.75 334.5,1726.4 334.5,1710C334.5,1694.38 335.554,1687.2 341.471,1662.5C344.394,1650.3 354.563,1615.1 355.4,1614.29C355.564,1614.13 357.7,1615.84 360.1,1618.05C365.969,1623.45 371.2,1626.43 378.5,1628.52C386.064,1630.69 393.1,1629.98 404.3,1625.94C427.685,1617.49 449.034,1595.5 464.914,1563.5C475.682,1541.8 479.599,1526.71 478.83,1509.9C478.464,1501.9 477.941,1499.61 475.321,1494.5C466.942,1478.17 441.5,1455.42 414.6,1440.2C403.2,1433.75 396.7,1432.52 388.6,1435.28C346.971,1449.47 292.291,1562 276.973,1665C274.028,1684.8 273.291,1708.73 275.378,1716.8C282.566,1744.61 312.5,1774.52 343.5,1784.88C355.3,1788.83 367.541,1789.86 374.5,1787.5C392.902,1781.25 426.141,1747.9 455.535,1706.2L463.5,1694.9L464.137,1705.2C465.028,1719.6 468.317,1728.38 478.191,1742.7C484.43,1751.75 499.7,1766.57 508.9,1772.51C529.4,1785.74 550.695,1791.53 564.3,1787.58C584.027,1781.85 621.451,1742.9 653.45,1694.8C657.774,1688.3 661.412,1683.11 661.55,1683.25C661.688,1683.39 660.477,1690.9 658.85,1700C657.223,1709.1 655.81,1720.34 655.7,1725.05C655.51,1733.15 655.7,1734.01 659.295,1741.3C666.64,1756.2 683.529,1775.91 696,1784.13C705.2,1790.2 705.2,1790.2 707.781,1781.5C711.375,1769.39 722.315,1744.8 739.15,1711C757.877,1673.4 771.525,1648.3 789.716,1618C812.351,1580.3 825.078,1560.71 822.521,1567.5C805.051,1613.9 789.085,1668.82 785.017,1696.5C782.284,1715.1 782.302,1723.76 785.082,1729.2C787.988,1734.88 798.8,1746.01 808.4,1753.18C829.1,1768.65 846.217,1775.09 854.8,1770.61C858.946,1768.45 868.516,1758.2 875.534,1748.4C909.839,1700.5 952.456,1594.63 947.067,1570.7C946.166,1566.7 944.251,1563.72 942.9,1564.21C942.46,1564.37 938.065,1572.6 933.133,1582.5C913.456,1622 884.462,1666.43 855.609,1701.3C851.141,1706.7 847.365,1710.65 847.2,1710.1C847.036,1709.55 847.871,1704.2 849.04,1698.3C859.06,1647.75 887.791,1566.5 915.45,1510.5L923.6,1494L921.853,1490.6C916.284,1479.76 887.3,1459.38 871.3,1455.05C866.071,1453.64 863.9,1454.48 856.1,1460.98C832.864,1480.35 786.28,1545.3 751.521,1606.8C748.3,1612.5 745.487,1616.88 745.223,1616.6C744.622,1615.97 767.233,1547.1 781.141,1507.2C815.65,1408.2 847.659,1331.28 860.659,1316.1L864,1312.2L860.1,1308.68C851.899,1301.29 828.2,1289.23 815.5,1285.98C806.9,1283.79 803.411,1283.56 800.9,1285.03ZM429.383,1493.6C429.193,1511.26 424.612,1528.8 415.433,1547C406.003,1565.7 391.269,1582.47 378.3,1589.28C370.2,1593.52 363,1596.31 363,1595.2C363,1594.76 364.974,1589.2 367.366,1582.9C381.487,1545.7 396.254,1516.69 411.044,1497.1C417.234,1488.9 425.965,1481.46 428.4,1482.32C429.116,1482.57 429.459,1486.5 429.383,1493.6ZM745,1618.5C745,1618.8 744.8,1619 744.5,1619C744.2,1619 744,1618.8 744,1618.5C744,1618.2 744.2,1618 744.5,1618C744.8,1618 745,1618.2 745,1618.5Z"/>
        </clipPath>
        <g class="neutral" clip-path="url(#_clip6)">
            <rect x="269.188" y="1279.1" width="683.343" height="514.706" style="fill-rule:nonzero;"/>
        </g>
        <clipPath id="_clip7">
            <path d="M1260.2,1300.52C1226.29,1306.63 1194.78,1328.2 1161.46,1368.1C1109.36,1430.49 1068.59,1528.7 1058.51,1616.1C1052.65,1666.9 1057.26,1699.39 1074.61,1729.5C1105.76,1783.6 1171.71,1811.1 1224.3,1791.91C1243.5,1784.91 1259.1,1774.48 1278.8,1755.49C1330.76,1705.38 1372.23,1628.9 1393.47,1544C1401.37,1512.4 1403.49,1495.87 1403.44,1466C1403.4,1443.3 1403.2,1440.55 1400.66,1428.5C1387.92,1368.1 1351.29,1319.23 1307.3,1303.95C1293,1298.98 1275.7,1297.72 1260.2,1300.52ZM1311.1,1353.6C1317.7,1355.52 1324.92,1360 1329.15,1364.8C1333.74,1370.01 1338.67,1381.1 1341.25,1392C1343.29,1400.6 1343.5,1404 1343.45,1428C1343.41,1450.8 1343.08,1456.38 1341.13,1468C1328.82,1541.1 1299.76,1617.28 1262.55,1674C1251.13,1691.4 1241.48,1703.58 1228.56,1716.9C1200.34,1746 1178.79,1755.86 1155.2,1750.47C1133.25,1745.45 1123.66,1729.2 1120.99,1692.5C1118.32,1655.76 1127.38,1602.9 1145.93,1547C1164.21,1491.9 1186.6,1447.57 1214.87,1410.5C1224.86,1397.4 1244.52,1377.18 1254.5,1369.76C1274.1,1355.16 1295.48,1349.06 1311.1,1353.6Z"/>
        </clipPath>
        <g class="neutral" clip-path="url(#_clip7)">
            <rect x="1051.1" y="1294.06" width="357.339" height="508.952" style="fill-rule:nonzero;"/>
        </g>
        <clipPath id="_clip8">
            <path d="M350,1865C326.5,1868.74 311.873,1884.83 313.196,1905.5C314.302,1922.79 324.8,1931.81 352.9,1939.63C379.7,1947.09 386.606,1950.34 391.716,1957.9C396.308,1964.69 394.2,1976.74 387.3,1983.14C373.009,1996.38 338.479,1992.1 322.512,1975.1C320.915,1973.4 319.284,1972 318.9,1972C317.5,1972 308.883,1984.21 309.376,1985.5C310.274,1987.84 321.2,1995.92 327.7,1999.05C341.952,2005.92 363.7,2008.23 379.4,2004.55C399.1,1999.93 410.841,1986.83 411.794,1968.4C412.548,1953.8 407.562,1943.54 396.1,1936.1C390.347,1932.37 376.7,1927.37 359,1922.5C338.4,1916.84 331,1911.18 331,1901.1C331,1895.6 332.471,1892.18 336.728,1887.8C341.828,1882.55 349.1,1880 359,1880C373.3,1880 385.196,1884.04 394.2,1891.96L398.8,1896L409.2,1883.5L404.5,1879.25C399.048,1874.33 388,1868.69 379.6,1866.55C372.1,1864.64 357.202,1863.86 350,1865Z"/>
        </clipPath>
        <g class="neutral" clip-path="url(#_clip8)">
            <rect x="304.355" y="1859.47" width="112.513" height="151.816" style="fill-rule:nonzero;"/>
        </g>
        <clipPath id="_clip9">
            <path d="M793,1892C793,1906.3 792.797,1918 792.55,1918C792.305,1918 790,1915.97 787.5,1913.55C784.96,1911.09 779.9,1907.62 776.2,1905.8C769.865,1902.68 768.9,1902.5 758.5,1902.5C748.2,1902.5 747.067,1902.71 740.7,1905.73C723.789,1913.78 714.742,1931 714.821,1955C714.876,1971.7 718.934,1983.41 728.162,1993.5C743.112,2009.85 769.8,2010.75 786.8,1995.49C789.6,1992.98 792.064,1991 792.4,1991C792.732,1991 793,1993.9 793,1997.5L793,2004L808,2004L808,1866L793,1866L793,1892ZM778.1,1919.75C781.9,1921.62 786.461,1924.91 788.85,1927.5L793,1932L793,1953.8C793,1978.4 792.776,1979.26 784.9,1984.97C770.2,1995.63 751.238,1994.74 740.597,1982.9C733.727,1975.26 731.672,1968.9 731.578,1955C731.534,1948.6 732.044,1941.73 732.727,1939.5C734.905,1932.4 740.263,1924.68 745.4,1921.23C751.828,1916.92 755.1,1916.05 764,1916.3C770.2,1916.46 772.644,1917.06 778.1,1919.75Z"/>
        </clipPath>
        <g class="neutral" clip-path="url(#_clip9)">
            <rect x="709.82" y="1861" width="103.18" height="150.373" style="fill-rule:nonzero;"/>
        </g>
        <clipPath id="_clip10">
            <path d="M2003,1935L2003,2004L2018,2004L2018,1866L2003,1866L2003,1935Z"/>
        </clipPath>
        <g class="neutral" clip-path="url(#_clip10)">
            <rect x="1998" y="1861" width="25" height="148" style="fill-rule:nonzero;"/>
        </g>
        <clipPath id="_clip11">
            <path d="M2383,1935L2383,2004L2398,2004L2398,1866L2383,1866L2383,1935Z"/>
        </clipPath>
        <g class="neutral" clip-path="url(#_clip11)">
            <rect x="2378" y="1861" width="25" height="148" style="fill-rule:nonzero;"/>
        </g>
        <clipPath id="_clip12">
            <path d="M440,1890.5L440,1904L424,1904L424,1918L439.9,1918L440.2,1954.75C440.493,1990.65 440.552,1991.6 442.746,1995.7C445.766,2001.35 450.7,2004.92 456.8,2005.87C465.1,2007.17 473.415,2005.47 479.8,2001.17C480.835,2000.48 480.662,1999.2 478.95,1994.9C477.756,1991.9 476.667,1989.34 476.5,1989.15C476.335,1988.96 475.05,1989.54 473.65,1990.45C472.249,1991.36 469.05,1992.19 466.55,1992.3C462.75,1992.47 461.547,1992.05 459.25,1989.75L456.5,1987L455.9,1918L476,1918L476,1904L456,1904L456,1877L440,1877L440,1890.5Z"/>
        </clipPath>
        <g class="neutral" clip-path="url(#_clip12)">
            <rect x="419" y="1872" width="66.441" height="139.295" style="fill-rule:nonzero;"/>
        </g>
        <clipPath id="_clip13">
            <path d="M1324,1890.5L1324,1904L1308,1904L1308,1918L1323.9,1918L1324.2,1954.75C1324.49,1990.15 1324.58,1991.65 1326.64,1995.5C1329.13,2000.14 1331.1,2002.06 1335.9,2004.49C1340.79,2006.96 1352.5,2006.76 1358.2,2004.11C1365.3,2000.8 1365.3,2000.8 1362.95,1994.9C1361.76,1991.9 1360.67,1989.34 1360.5,1989.15C1360.34,1988.96 1359.05,1989.54 1357.65,1990.45C1356.25,1991.36 1353.05,1992.19 1350.55,1992.3C1346.75,1992.47 1345.55,1992.05 1343.25,1989.75L1340.5,1987L1339.9,1918L1360,1918L1360,1904L1340,1904L1340,1877L1324,1877L1324,1890.5Z"/>
        </clipPath>
        <g class="neutral" clip-path="url(#_clip13)">
            <rect x="1303" y="1872" width="66.353" height="139.229" style="fill-rule:nonzero;"/>
        </g>
        <clipPath id="_clip14">
            <path d="M522.3,1903.56C515.3,1905.44 506.449,1910.04 501.3,1914.48L497.1,1918.1L504.2,1928.9L509.5,1924.56C517.03,1918.38 524.6,1915.68 534.5,1915.64C540.7,1915.61 543.625,1916.1 547.5,1917.84C557.669,1922.4 559.911,1926.8 559.963,1942.3L560,1953.2L556.1,1950.1C548.723,1944.23 541.6,1941.7 531,1941.21C519.7,1940.69 513.086,1942.23 505.7,1947.11C493.381,1955.26 488.831,1972.4 495.112,1987C497.633,1992.86 505.3,2000.35 511.7,2003.19C525,2009.11 544.691,2006.38 555.2,1997.16C557.2,1995.4 559.067,1994 559.4,1994C559.736,1994 560,1996.2 560,1999L560,2004L576.1,2004L575.5,1926.5L572.885,1920.9C568.535,1911.59 560.7,1905.53 549.8,1903.04C543.6,1901.63 528.455,1901.92 522.3,1903.56ZM544,1953.59C547.1,1954.46 551.935,1956.89 554.6,1958.9L559.5,1962.6L560.1,1983.7L556.3,1987.03C549.045,1993.4 537.8,1996.27 526.7,1994.6C514.2,1992.71 505.818,1980.03 509.046,1967.9C510.457,1962.6 517.8,1954.95 523.099,1953.26C528.231,1951.63 537.6,1951.77 544,1953.59Z"/>
        </clipPath>
        <g class="neutral" clip-path="url(#_clip14)">
            <rect x="487.3" y="1897.14" width="93.8" height="114.184" style="fill-rule:nonzero;"/>
        </g>
        <clipPath id="_clip15">
            <path d="M645,1903.9C637.6,1906.29 634.025,1908.26 627.5,1913.55L622,1918L622,1904L607,1904L607,2004L622,2004L622,1930.6L626.6,1926.3C629.124,1923.94 633.75,1920.76 636.85,1919.25C641.786,1916.85 643.7,1916.5 652,1916.5C663.6,1916.5 667.542,1918.41 671.184,1925.8C673.459,1930.42 673.505,1931.15 673.8,1967.25L674.1,2004L689,2004L689,1964.7C689,1918.9 688.833,1917.74 681.2,1910.16C677.843,1906.83 674.9,1905 670.9,1903.74C663.755,1901.5 652.2,1901.57 645,1903.9Z"/>
        </clipPath>
        <g class="neutral" clip-path="url(#_clip15)">
            <rect x="602" y="1897.11" width="92" height="111.892" style="fill-rule:nonzero;"/>
        </g>
        <clipPath id="_clip16">
            <path d="M1042,1904.05C1035.8,1906.29 1026.87,1912.07 1024,1915.7L1022.1,1918.1L1021.5,1904.5L1013.75,1904.2L1006,1903.9L1006,2042L1022,2042L1022,1990.4L1026.9,1995.11C1043.09,2010.66 1070.86,2009.9 1085.86,1993.5C1095.18,1983.31 1099.38,1971 1099.32,1954C1099.24,1928.2 1088.65,1910.63 1069.2,1904.06C1061.1,1901.33 1049.53,1901.32 1042,1904.05ZM1065.8,1919.51C1071.63,1922.71 1074.98,1926.2 1078.15,1932.4C1084.41,1944.63 1084.59,1962.5 1078.57,1975.2C1069.37,1994.6 1044.44,1998.32 1027.5,1982.83L1022,1977.8L1022,1930.3L1026.4,1926.24C1034.57,1918.69 1041.8,1915.94 1052.5,1916.32C1059.1,1916.55 1061.43,1917.11 1065.8,1919.51Z"/>
        </clipPath>
        <g class="neutral" clip-path="url(#_clip16)">
            <rect x="1001" y="1897.01" width="103.323" height="149.994" style="fill-rule:nonzero;"/>
        </g>
        <clipPath id="_clip17">
            <path d="M1243,1903.36C1225.7,1908.39 1216.41,1921.89 1219.97,1936.8C1222.6,1947.82 1231.4,1953.62 1254.4,1959.49C1270.6,1963.62 1277.19,1966.79 1279.41,1971.5C1281.32,1975.57 1281.36,1978.1 1279.56,1982.4C1276.84,1988.89 1270.7,1992.61 1261,1993.64C1250.6,1994.74 1235.43,1989.83 1228.3,1983.05C1226.5,1981.33 1224.88,1980 1224.6,1980C1223.84,1980 1217,1989.9 1217,1991C1217,1991.56 1219.7,1993.99 1223.1,1996.5C1232.01,2003.08 1242.4,2006.12 1256.1,2006.16C1267.6,2006.19 1272.82,2005.17 1280.1,2001.49C1289.49,1996.74 1294.93,1988.7 1295.74,1978.4C1296.39,1970 1294.16,1963.61 1288.7,1958.26C1283.11,1952.77 1276,1949.66 1259.6,1945.53C1245.6,1942.01 1241.04,1940.22 1237.3,1936.81C1231.6,1931.6 1234.6,1921.88 1243.3,1917.36C1250.26,1913.74 1264.1,1913.95 1273.1,1917.81C1275.52,1918.85 1279.55,1921.28 1282.05,1923.2L1286.6,1926.7L1289.8,1921.85C1291.58,1919.15 1293,1916.6 1293,1916.1C1293,1914.6 1281.4,1907.33 1275.2,1904.94C1268.1,1902.21 1250.01,1901.32 1243,1903.36Z"/>
        </clipPath>
        <g class="neutral" clip-path="url(#_clip17)">
            <rect x="1212" y="1897.24" width="88.848" height="113.918" style="fill-rule:nonzero;"/>
        </g>
        <clipPath id="_clip18">
            <path d="M1412.1,1903.6C1396.96,1907.66 1384.51,1919.8 1378.86,1936C1376.12,1943.86 1375.61,1961.4 1377.9,1969.5C1382.86,1987.1 1395.05,1999.53 1412.2,2004.49C1419.02,2006.47 1434.3,2006.7 1441.6,2004.94C1448.6,2003.25 1457.89,1998.72 1462.5,1994.75L1466.5,1991.3L1463.6,1987.1C1462.01,1984.8 1460.32,1982.67 1459.85,1982.4C1459.38,1982.12 1456.3,1983.7 1452.9,1985.96C1437.4,1996.28 1417.12,1995.88 1404.8,1985.02C1399.31,1980.17 1394.13,1970.7 1393.31,1964L1392.7,1959L1473,1959L1473,1952.7C1473,1929.3 1458.58,1908.77 1438.5,1903.57C1431.1,1901.65 1419.28,1901.66 1412.1,1903.6ZM1437.7,1917.17C1448.02,1921.03 1455.36,1930.9 1457.5,1943.8L1458.2,1948L1392.7,1948L1393.28,1943.1C1393.92,1937.7 1397.45,1929.98 1401.48,1925.2C1409.44,1915.76 1424.8,1912.35 1437.7,1917.17Z"/>
        </clipPath>
        <g class="neutral" clip-path="url(#_clip18)">
            <rect x="1371.45" y="1897.14" width="106.549" height="113.986" style="fill-rule:nonzero;"/>
        </g>
        <clipPath id="_clip19">
            <path d="M1534,1904.08C1527.5,1906.4 1518.43,1912.4 1516.14,1915.9C1514.51,1918.38 1514.5,1918.35 1514,1911.45L1513.5,1904.5L1505.75,1904.2L1498,1903.9L1498,2042L1514,2042L1514,1990.4L1519.1,1995.19C1528.44,2003.95 1540.7,2007.71 1554,2005.89C1580.3,2002.28 1596.25,1974.5 1590.6,1942.1C1587.08,1921.9 1576.45,1908.5 1560.1,1903.64C1552.6,1901.41 1540.89,1901.61 1534,1904.08ZM1558.1,1919.72C1564.35,1923.21 1569.77,1929.8 1572.57,1937.3C1574.1,1941.42 1574.49,1945 1574.46,1954.5C1574.41,1968.6 1572.5,1974.86 1565.95,1982.3C1554.28,1995.55 1533.7,1995.78 1519.5,1982.82L1514,1977.8L1514,1930.3L1518.4,1926.23C1526.52,1918.73 1534.2,1915.89 1545.1,1916.37C1551.3,1916.64 1553.69,1917.26 1558.1,1919.72Z"/>
        </clipPath>
        <g class="neutral" clip-path="url(#_clip19)">
            <rect x="1493" y="1897.09" width="103.733" height="149.91" style="fill-rule:nonzero;"/>
        </g>
        <clipPath id="_clip20">
            <path d="M1821.5,1903.38C1814.7,1905.62 1808.95,1908.99 1803.9,1913.72L1799,1918.3L1799,1903.9L1783.5,1904.5L1783,2042L1799,2042L1799,1989.7L1804.3,1994.72C1813.08,2003.05 1820.7,2006.11 1832.7,2006.15C1861.03,2006.24 1878.56,1983.7 1876.69,1949.6C1876,1937.1 1873.24,1927.99 1867.65,1919.8C1863.08,1913.1 1854,1906.04 1847.3,1903.99C1841.5,1902.21 1826.16,1901.85 1821.5,1903.38ZM1839.3,1917.55C1857.96,1923.91 1866.36,1952.5 1856.06,1974.6C1851.39,1984.62 1844.6,1990 1834.1,1992C1824,1993.92 1809.76,1988.91 1802.52,1980.9L1799,1977L1799,1954.4C1799,1928.8 1798.97,1928.92 1807.8,1922.82C1817.29,1916.25 1829.5,1914.21 1839.3,1917.55Z"/>
        </clipPath>
        <g class="neutral" clip-path="url(#_clip20)">
            <rect x="1778" y="1897.42" width="103.824" height="149.584" style="fill-rule:nonzero;"/>
        </g>
        <clipPath id="_clip21">
            <path d="M2080.7,1903.1C2066.29,1906.49 2052.63,1919 2046.93,1934C2042.21,1946.44 2042.48,1963.6 2047.59,1976.4C2052.69,1989.16 2064.4,1999.85 2077.9,2004.05C2090.2,2007.88 2109.21,2006.48 2120.3,2000.92C2126,1998.06 2132.94,1992.79 2132.97,1991.3C2132.99,1990.63 2131.6,1988.1 2129.85,1985.6L2126.7,1981.1L2122.9,1984.1C2107.1,1996.59 2083.92,1996.61 2071.1,1984.14C2065.75,1978.95 2061.24,1970.3 2060.31,1963.5L2059.7,1959L2141.1,1959L2140.45,1951.8C2137.61,1920.5 2119.64,1901.79 2092.7,1902.1C2088.2,1902.16 2082.78,1902.6 2080.7,1903.1ZM2107.6,1918.29C2116.36,1922.8 2123.18,1932.8 2124.64,1943.3L2125.3,1948L2060,1948L2060,1945.5C2060,1941.64 2063.43,1932.7 2066.78,1927.8C2070.09,1922.98 2075.9,1918.53 2081.7,1916.38C2087.95,1914.06 2101.3,1915.05 2107.6,1918.29Z"/>
        </clipPath>
        <g class="neutral" clip-path="url(#_clip21)">
            <rect x="2038.56" y="1897.1" width="107.536" height="114.112" style="fill-rule:nonzero;"/>
        </g>
        <clipPath id="_clip22">
            <path d="M2296,1903.86C2287.2,1906.7 2282.02,1909.81 2276.1,1915.8C2266.01,1926.02 2261.02,1938.7 2261.05,1954C2261.08,1970.8 2265.93,1982.92 2276.6,1992.91C2286.99,2002.63 2296.7,2006.19 2312.8,2006.15C2326.3,2006.12 2339.09,2001.78 2348,1994.19L2351.4,1991.3L2343.9,1981.1L2338.7,1985.05C2326.36,1994.43 2309.2,1996.19 2295.9,1989.45C2287.14,1985.01 2279.13,1973.6 2277.47,1963.2L2276.8,1959L2358,1959L2358,1954.6C2358,1946.8 2355.11,1934.65 2351.53,1927.4C2345.56,1915.31 2335.3,1906.81 2322.5,1903.37C2315.5,1901.48 2302.64,1901.72 2296,1903.86ZM2321,1916.56C2331.36,1919.63 2342,1933.8 2342,1944.5L2342,1948L2309.5,1948C2284.2,1948 2277,1947.73 2277.01,1946.8C2277.05,1943.68 2280.07,1934.6 2282.39,1930.6C2285.71,1924.9 2292.98,1918.5 2298.3,1916.61C2303.88,1914.62 2314.4,1914.6 2321,1916.56Z"/>
        </clipPath>
        <g class="neutral" clip-path="url(#_clip22)">
            <rect x="2256.05" y="1897.09" width="106.953" height="114.06" style="fill-rule:nonzero;"/>
        </g>
        <clipPath id="_clip23">
            <path d="M2632,1904.31C2625.1,1906.65 2615.76,1912.83 2613.71,1916.4C2612.64,1918.26 2612.44,1917.7 2612,1911.5L2611.5,1904.5L2596,1903.9L2596,2042L2612,2042L2612,1990.1L2616.8,1994.8C2625.89,2003.69 2637.9,2007.53 2651.5,2005.88C2668.88,2003.77 2682.48,1991 2687.58,1972C2689.93,1963.2 2689.94,1944.85 2687.59,1936.1C2681.79,1914.5 2666.32,1901.96 2645.6,1902.06C2641,1902.09 2636.21,1902.88 2632,1904.31ZM2656,1919.51C2662.34,1922.93 2667.66,1929.4 2670.53,1937.2C2673.43,1945.1 2673.24,1964.34 2670.18,1972.1C2661.38,1994.4 2635.18,1999.35 2616.8,1982.18L2612,1977.7L2612,1930.3L2616.4,1926.23C2624.52,1918.73 2632.2,1915.87 2643.1,1916.3C2649.1,1916.54 2651.68,1917.18 2656,1919.51Z"/>
        </clipPath>
        <g class="neutral" clip-path="url(#_clip23)">
            <rect x="2591" y="1897.06" width="103.349" height="149.936" style="fill-rule:nonzero;"/>
        </g>
        <clipPath id="_clip24">
            <path d="M892.225,1944.3C892.594,1990 892.721,1990.82 900.6,1998.68C912.646,2010.69 942.453,2007.9 955.956,1993.5C957.268,1992.1 958.674,1991 959.15,1991C959.621,1991 960,1993.9 960,1997.5L960,2004L975,2004L975,1904L960,1904L960,1977L956.568,1980.8C949.219,1988.94 934.6,1993.97 924.1,1991.98C921.2,1991.43 918.104,1990.58 917.1,1990.04C914.035,1988.41 910.161,1983.2 909.039,1979.2C908.414,1976.98 908,1961.25 908,1939.75L908,1904L891.9,1904L892.225,1944.3Z"/>
        </clipPath>
        <g class="neutral" clip-path="url(#_clip24)">
            <rect x="886.9" y="1899" width="93.1" height="112.217" style="fill-rule:nonzero;"/>
        </g>
        <clipPath id="_clip25">
            <path d="M1670,1943.3C1670,1987.6 1670.3,1990.04 1676.7,1997.1C1681.47,2002.37 1686.6,2004.88 1694.5,2005.83C1708.1,2007.46 1719.43,2004.33 1730.7,1995.85L1737,1991.1L1737,2004L1753,2004L1752.5,1904.5L1737,1903.9L1737,1978L1732.9,1981.99C1724.86,1989.8 1712.1,1993.94 1702,1992.01C1694.7,1990.62 1690.91,1988.16 1687.97,1982.9L1685.5,1978.5L1684.9,1904L1670,1904L1670,1943.3Z"/>
        </clipPath>
        <g class="neutral" clip-path="url(#_clip25)">
            <rect x="1665" y="1898.9" width="93" height="112.345" style="fill-rule:nonzero;"/>
        </g>
        <clipPath id="_clip26">
            <path d="M2151,1904.8C2151,1905.3 2160.16,1927.7 2171.35,1954.6L2191.7,2003.5L2209.2,2003.5L2229.6,1954.55C2240.81,1927.65 2250,1905.22 2250,1904.75C2250,1904.29 2246.25,1904.04 2241.75,1904.2L2233.5,1904.5L2227.95,1918C2224.91,1925.4 2217.5,1943.6 2211.55,1958.3C2205.6,1973 2200.5,1984.87 2200.25,1984.6C2200,1984.33 2192.51,1966.2 2183.6,1944.3L2167.4,1904.5L2159.2,1904.2C2154.7,1904.04 2151,1904.31 2151,1904.8Z"/>
        </clipPath>
        <g class="neutral" clip-path="url(#_clip26)">
            <rect x="2146" y="1899.15" width="109" height="109.35" style="fill-rule:nonzero;"/>
        </g>
        <clipPath id="_clip27">
            <path d="M2482.4,1905.4C2482.13,1906.17 2482.05,1924.3 2482.23,1945.6C2482.59,1987.8 2482.75,1989.1 2488.56,1996.7C2491.3,2000.29 2498.3,2004.31 2503.9,2005.51C2510.3,2006.89 2522.26,2006.17 2528.4,2004.05C2535,2001.76 2542.4,1997.32 2545.97,1993.5C2547.27,1992.1 2548.67,1991 2549.15,1991C2549.62,1991 2550,1993.9 2550,1997.5L2550,2004L2565,2004L2565,1904L2550,1904L2550,1977.8L2545,1982.3C2538.96,1987.73 2532.5,1990.87 2524.9,1992.08C2519.1,1993.01 2510.86,1992.07 2507.1,1990.06C2504.03,1988.42 2500.16,1983.2 2499.04,1979.2C2498.41,1976.98 2498,1961.25 2498,1939.75L2498,1904L2490.45,1904C2484.85,1904 2482.77,1904.36 2482.4,1905.4Z"/>
        </clipPath>
        <g class="neutral" clip-path="url(#_clip27)">
            <rect x="2477.13" y="1899" width="92.869" height="112.219" style="fill-rule:nonzero;"/>
        </g>
        <clipPath id="_clip28">
            <path d="M1128.5,1983.92C1124.25,1985.67 1121.5,1989.9 1121.5,1994.7C1121.5,1998.5 1122.01,1999.65 1124.75,2002.1C1126.85,2003.97 1129.08,2005 1131.05,2005C1133.75,2005 1134.03,2005.25 1133.46,2007.2C1132.18,2011.6 1128.04,2017.83 1124.4,2020.83L1120.8,2023.8L1124.15,2026.85C1125.95,2028.49 1127.92,2029.92 1128.4,2029.94C1130.42,2030.03 1139.3,2019.6 1141.8,2014.2C1145.31,2006.6 1146.01,1995.13 1143.26,1990.1C1140.26,1984.6 1133.62,1981.82 1128.5,1983.92Z"/>
        </clipPath>
        <g class="neutral" clip-path="url(#_clip28)">
            <rect x="1115.8" y="1978.22" width="34.144" height="56.719" style="fill-rule:nonzero;"/>
        </g>
        <clipPath id="_clip29">
            <path d="M1905.3,1984.48C1901.51,1986.12 1899,1990.5 1899,1995.5C1899,2000.3 1903.4,2005 1907.9,2005C1910,2005 1911,2005.48 1911,2006.5C1911,2009.32 1907.3,2015.38 1903.1,2019.44C1900.8,2021.66 1899,2023.71 1899,2024.1C1899,2024.49 1900.6,2026 1902.6,2027.5L1906.2,2030.2L1911.15,2025.35C1913.84,2022.72 1917.54,2017.55 1919.25,2014.05C1921.92,2008.58 1922.41,2006.45 1922.45,2000.05C1922.49,1993.65 1922.14,1992 1920.13,1989.2C1917.83,1986 1912.75,1982.98 1909.8,1983.06C1909.07,1983.08 1907.1,1983.7 1905.3,1984.48Z"/>
        </clipPath>
        <g class="neutral" clip-path="url(#_clip29)">
            <rect x="1894" y="1978.06" width="33.453" height="57.138" style="fill-rule:nonzero;"/>
        </g>
    </g>
</svg>
