<?xml version="1.0" encoding="UTF-8"?>
<svg class="notist" width="115px" height="80px" viewBox="0 0 115 80" version="1.1" xmlns="http://www.w3.org/2000/svg" xmlns:xlink="http://www.w3.org/1999/xlink">
    <!-- Generator: Sketch 48.2 (47327) - http://www.bohemiancoding.com/sketch -->
    <title>Combined Shape</title>
    <desc>Created with Sketch.</desc>
    <defs></defs>
    <g id="Page-1" stroke="none" stroke-width="1" fill="none" fill-rule="evenodd">
        <path d="M79.0372536,79.2873715 C64.7805338,79.2873715 56.0264076,70.7833632 56.0264076,60.0282939 C56.0264076,44.7711025 64.0301801,34.7663869 64.0301801,25.0117891 C64.0301801,21.0099029 61.7791191,18.0084882 58.2774686,18.0084882 C54.0254645,18.0084882 48.0226351,22.2604923 42.5200415,33.2656795 C38.2680373,41.7696878 31.7649722,63.0297086 31.7649722,72.7843063 C31.7649722,77.0363105 30.0141469,78.036782 26.2623786,78.036782 C18.7588418,78.036782 9.00424408,79.2873715 5.25247571,79.2873715 C2.00094313,79.2873715 0,78.036782 0,73.7847779 C0,64.5304159 10.5049514,30.7645006 10.5049514,17.2581345 C10.5049514,13.0061303 8.75412619,12.5058946 8.75412619,9.25436197 C8.75412619,3.75176837 22.2604923,0 36.76733,0 C42.2699236,0 45.2713383,2.25106102 45.2713383,6.50306517 C45.2713383,10.5049514 43.2703952,17.7583703 43.2703952,17.7583703 C47.7725172,12.2557767 62.5294728,0 77.2864284,0 C91.0429124,0 96.545506,6.25294728 96.545506,15.7574271 C96.545506,27.2628501 89.542205,39.7687447 89.542205,50.0235782 C89.542205,56.5266434 93.0438555,59.0278223 97.5459776,59.0278223 C101.797982,59.0278223 103.798925,57.0268792 107.050457,53.7753466 C108.801283,52.0245214 109.801754,51.2741677 111.302462,51.2741677 C113.553523,51.2741677 114.804112,53.2751108 114.804112,54.7758182 C114.804112,57.527115 113.303405,59.5280581 110.802226,62.7795907 C105.54975,69.5327737 94.7946808,79.2873715 79.0372536,79.2873715 Z" id="Combined-Shape" fill="currentColor"></path>
    </g>
</svg>