<?xml version="1.0" encoding="UTF-8" standalone="no"?>
<!DOCTYPE svg PUBLIC "-//W3C//DTD SVG 1.1//EN" "http://www.w3.org/Graphics/SVG/1.1/DTD/svg11.dtd">
<svg width="100%" height="100%" viewBox="0 0 22 8" version="1.1" xmlns="http://www.w3.org/2000/svg" xmlns:xlink="http://www.w3.org/1999/xlink" xml:space="preserve" xmlns:serif="http://www.serif.com/" style="fill-rule:evenodd;clip-rule:evenodd;stroke-linejoin:round;stroke-miterlimit:2;">
    <g transform="matrix(1,0,0,1,-1.7085e-06,2.97025e-06)">
        <g transform="matrix(0.548545,0,0,0.548545,-0.548543,-2.74273)">
            <path d="M16.5,13C15.3,13 13.43,13.34 12,14C10.57,13.33 8.7,13 7.5,13C5.33,13 1,14.08 1,16.25L1,19L23,19L23,16.25C23,14.08 18.67,13 16.5,13ZM12.5,17.5L2.5,17.5L2.5,16.25C2.5,15.71 5.06,14.5 7.5,14.5C9.94,14.5 12.5,15.71 12.5,16.25L12.5,17.5ZM21.5,17.5L14,17.5L14,16.25C14,15.79 13.8,15.39 13.48,15.03C14.36,14.73 15.44,14.5 16.5,14.5C18.94,14.5 21.5,15.71 21.5,16.25L21.5,17.5ZM7.5,12C9.43,12 11,10.43 11,8.5C11,6.57 9.43,5 7.5,5C5.57,5 4,6.57 4,8.5C4,10.43 5.57,12 7.5,12ZM7.5,6.5C8.6,6.5 9.5,7.4 9.5,8.5C9.5,9.6 8.6,10.5 7.5,10.5C6.4,10.5 5.5,9.6 5.5,8.5C5.5,7.4 6.4,6.5 7.5,6.5ZM16.5,12C18.43,12 20,10.43 20,8.5C20,6.57 18.43,5 16.5,5C14.57,5 13,6.57 13,8.5C13,10.43 14.57,12 16.5,12ZM16.5,6.5C17.6,6.5 18.5,7.4 18.5,8.5C18.5,9.6 17.6,10.5 16.5,10.5C15.4,10.5 14.5,9.6 14.5,8.5C14.5,7.4 15.4,6.5 16.5,6.5Z" style="fill-rule:nonzero;"/>
        </g>
        <g transform="matrix(0.548545,0,0,0.548545,4.41198,-2.74272)">
            <path d="M16.5,13C15.3,13 13.43,13.34 12,14C12.277,14.472 12.478,14.816 12.5,16.184C12.507,16.627 12.489,17.085 12.5,17.5C12.522,18.338 12.573,19 12.573,19L23,19L23,16.25C23,14.08 18.67,13 16.5,13ZM21.5,17.5L14,17.5L14,16.25C14,15.79 13.8,15.39 13.48,15.03C14.36,14.73 15.44,14.5 16.5,14.5C18.94,14.5 21.5,15.71 21.5,16.25L21.5,17.5ZM16.5,12C18.43,12 20,10.43 20,8.5C20,6.57 18.43,5 16.5,5C14.57,5 13,6.57 13,8.5C13,10.43 14.57,12 16.5,12ZM16.5,6.5C17.6,6.5 18.5,7.4 18.5,8.5C18.5,9.6 17.6,10.5 16.5,10.5C15.4,10.5 14.5,9.6 14.5,8.5C14.5,7.4 15.4,6.5 16.5,6.5Z" style="fill-rule:nonzero;"/>
        </g>
        <g transform="matrix(0.548545,0,0,0.548545,9.38347,-2.74273)">
            <path d="M16.5,13C15.3,13 13.43,13.34 12,14C12.277,14.472 12.478,14.816 12.5,16.184C12.507,16.627 12.489,17.085 12.5,17.5C12.522,18.338 12.573,19 12.573,19L23,19L23,16.25C23,14.08 18.67,13 16.5,13ZM21.5,17.5L14,17.5L14,16.25C14,15.79 13.8,15.39 13.48,15.03C14.36,14.73 15.44,14.5 16.5,14.5C18.94,14.5 21.5,15.71 21.5,16.25L21.5,17.5ZM16.5,12C18.43,12 20,10.43 20,8.5C20,6.57 18.43,5 16.5,5C14.57,5 13,6.57 13,8.5C13,10.43 14.57,12 16.5,12ZM16.5,6.5C17.6,6.5 18.5,7.4 18.5,8.5C18.5,9.6 17.6,10.5 16.5,10.5C15.4,10.5 14.5,9.6 14.5,8.5C14.5,7.4 15.4,6.5 16.5,6.5Z" style="fill-rule:nonzero;"/>
        </g>
    </g>
</svg>
